<?xml version="1.0" encoding="UTF-8" standalone="no"?>
<!DOCTYPE svg PUBLIC "-//W3C//DTD SVG 1.1//EN" "http://www.w3.org/Graphics/SVG/1.1/DTD/svg11.dtd">
<svg xmlns="http://www.w3.org/2000/svg" xmlns:xlink="http://www.w3.org/1999/xlink" version="1.1" width="841.89pt" height="595.28pt" viewBox="0 0 841.89 595.28">
<g enable-background="new">
<g id="Layer-1" data-name="Layer">
<clipPath id="cp0">
<path transform="matrix(1,0,0,-1,0,595.28)" d="M 0 595.28 L 841.89 595.28 L 841.89 0 L 0 0 Z "/>
</clipPath>
<g clip-path="url(#cp0)">
<path transform="matrix(1,0,0,-1,657.8047,375.89234)" d="M 0 0 C -12.402 -.778 -23.986 -1.18 -35.485 -2.39 C -39.9 -2.854 -44.37 -4.707 -48.312 -6.853 C -49.964 -7.751 -51.422 -11.294 -51.006 -13.209 C -50.249 -16.691 -47.386 -19.389 -43.426 -19.16 C -31.665 -18.481 -19.917 -17.556 -8.178 -16.569 C -6.94 -16.465 -5.087 -15.581 -4.72 -14.606 C -2.944 -9.897 -1.58 -5.033 0 0 M 9.61 58.804 C 7.174 58.612 5.867 58.711 4.678 58.385 C -5.796 55.506 -16.341 52.84 -26.678 49.525 C -34.521 47.011 -42.18 43.843 -49.716 40.504 C -51.48 39.722 -53.905 36.293 -53.453 35.432 C -52.198 33.039 -49.861 30.815 -47.418 29.587 C -45.831 28.789 -43.207 29.519 -41.223 30.13 C -26.565 34.65 -11.941 39.282 2.659 43.987 C 3.944 44.401 5.61 45.35 6.02 46.451 C 7.383 50.117 8.254 53.966 9.61 58.804 M 8.309 -53.388 C 3.769 -53.388 .155 -53.672 -3.399 -53.336 C -15.477 -52.195 -27.828 -55.393 -39.727 -50.583 C -43.334 -49.125 -49.629 -53.192 -50.26 -56.279 C -50.847 -59.153 -46.565 -63.505 -42.196 -64.361 C -37.523 -65.277 -32.845 -66.168 -28.148 -66.948 C -19.407 -68.4 -10.67 -69.916 -1.884 -71.024 C -.32 -71.222 2.413 -69.994 2.993 -68.701 C 4.99 -64.25 6.272 -59.478 8.309 -53.388 M -405.829 239.533 C -414.027 242.212 -415.699 241.266 -416.599 232.61 C -417.166 227.159 -417.772 221.637 -417.505 216.189 C -416.814 202.076 -416.007 187.95 -414.585 173.896 C -412.665 154.897 -410.024 135.96 -401.886 118.38 C -398.137 110.283 -393.796 102.612 -384.73 98.983 C -372.538 94.103 -360.146 97.927 -357.267 108.778 C -354.606 118.805 -352.096 129.264 -352.106 139.53 C -352.13 163.758 -353.806 187.98 -354.562 212.213 C -354.768 218.827 -354.228 225.479 -353.76 232.094 C -353.423 236.866 -357.143 236.491 -359.788 236.799 C -360.826 236.92 -362.958 234.884 -363.163 233.602 C -363.84 229.37 -364.273 225.014 -364.071 220.74 C -363.115 200.535 -361.614 180.352 -360.928 160.141 C -360.566 149.471 -361.067 138.725 -361.944 128.077 C -362.588 120.268 -363.779 112.418 -368.517 105.606 C -374.415 97.125 -380.241 96.793 -386.4 104.966 C -393.597 114.516 -396.948 125.89 -399.586 137.104 C -406.376 165.966 -408.754 195.395 -407.705 225.045 C -407.537 229.794 -406.502 234.511 -405.829 239.533 M -79.058 -64.615 C -79.058 -58.341 -78.968 -53.256 -79.135 -48.18 C -79.168 -47.198 -80.037 -46.082 -80.807 -45.314 C -87.978 -38.159 -95 -30.833 -102.513 -24.052 C -106.444 -20.502 -106.448 -17.701 -103.526 -13.648 C -94.759 -1.488 -90.525 11.715 -91.552 27.191 C -92.946 48.218 -105.541 62.513 -126.835 64.481 C -129.458 64.724 -131.687 63.473 -130.084 60.839 C -127.609 56.77 -128.397 52.759 -128.28 48.456 C -127.857 33.021 -126.405 17.614 -125.924 2.179 C -125.271 -18.778 -125.199 -39.753 -124.769 -60.717 C -124.67 -65.525 -124.506 -70.394 -123.662 -75.106 C -122.956 -79.048 -120.887 -82.488 -115.413 -83.411 C -116.105 -63.712 -116.783 -44.459 -117.46 -25.206 C -116.893 -25.071 -116.325 -24.937 -115.758 -24.804 C -110.028 -31.598 -104.396 -38.476 -98.543 -45.16 C -92.759 -51.767 -87.923 -59.395 -79.058 -64.615 M -471.514 124.145 C -471.248 130.034 -470.879 135.987 -470.749 141.945 C -470.672 145.448 -469.228 145.944 -466.002 145.346 C -460.49 144.324 -454.875 143.453 -449.288 143.358 C -445.061 143.287 -443.584 141.617 -442.643 137.785 C -439.179 123.677 -435.446 109.634 -431.693 95.599 C -430.207 90.04 -427.634 88.174 -422.351 88.719 C -423.074 92.092 -423.715 95.438 -424.514 98.746 C -429.263 118.429 -434.795 137.959 -438.628 157.818 C -443.171 181.352 -446.223 205.172 -450.001 228.855 C -451.194 236.332 -453.348 243.469 -459.046 250.536 C -460.505 245.758 -462.237 242.104 -462.684 238.298 C -465.681 212.742 -471.126 187.687 -476.945 162.655 C -479.287 152.583 -479.772 142.033 -480.534 131.658 C -480.969 125.729 -477.711 123.333 -471.514 124.145 M -333.335 252.534 C -333.852 252.465 -334.369 252.397 -334.886 252.33 C -335.194 251.3 -335.795 250.262 -335.764 249.243 C -335.517 240.977 -335.356 232.7 -334.782 224.454 C -333.354 203.985 -328.948 184.002 -322.502 164.65 C -314.713 141.262 -305.533 118.338 -297.092 95.165 C -296.051 92.307 -294.671 91.646 -291.892 92.446 C -282.797 95.063 -273.7 97.693 -264.524 100.003 C -260.143 101.106 -258.466 103.724 -258.761 107.882 C -259.325 115.832 -259.71 123.812 -260.738 131.705 C -261.877 140.451 -262.152 140.408 -270.788 137.578 C -272.205 137.113 -273.646 136.715 -275.087 136.327 C -282.387 134.363 -289.69 132.412 -296.709 130.533 C -303.376 147.596 -310.228 163.663 -315.919 180.13 C -321.136 195.224 -325.393 210.674 -329.458 226.129 C -330.868 231.489 -330.232 237.358 -330.923 242.946 C -331.325 246.191 -332.505 249.341 -333.335 252.534 M -160.642 -100.545 C -161.66 -95.566 -162.39 -91.389 -163.378 -87.272 C -168.143 -67.414 -173.746 -47.721 -177.589 -27.688 C -182.322 -3.014 -185.596 21.94 -189.531 46.769 C -190.646 53.795 -192.933 60.351 -197.743 66.416 C -202.145 59.387 -202.357 51.727 -203.686 44.358 C -206.611 28.114 -209.142 11.777 -212.756 -4.315 C -216.447 -20.755 -220.415 -37.083 -220.513 -54.045 C -220.523 -55.992 -220.59 -58.482 -219.502 -59.761 C -217.96 -61.574 -215.369 -62.495 -213.228 -63.798 C -212.408 -62.04 -211.028 -60.329 -210.872 -58.515 C -210.367 -52.622 -210.31 -46.69 -210.102 -41.35 C -201.241 -42.087 -193.216 -42.632 -185.235 -43.565 C -184.156 -43.691 -182.791 -45.621 -182.424 -46.953 C -178.311 -61.891 -174.199 -76.833 -170.472 -91.869 C -169.202 -96.991 -166.104 -99.236 -160.642 -100.545 M 61.336 -101.497 C 62.237 -98.933 62.798 -97.729 63.084 -96.462 C 66.804 -80.011 70.551 -63.565 74.158 -47.091 C 79.531 -22.548 84.802 2.018 90.111 26.574 C 92.483 37.547 96.189 48.431 93.155 59.858 C 91.543 65.932 89.974 72.177 83.887 75.627 C 83.01 50.751 72.906 28.248 70.291 3.144 C 69.142 4.971 68.579 5.6 68.309 6.336 C 63.173 20.297 58.01 34.249 52.994 48.253 C 50.697 54.666 46.916 59.843 40.757 65.113 C 41.323 63.058 41.445 62.426 41.669 61.831 C 46.141 49.951 51.221 38.259 54.948 26.15 C 59.148 12.504 62.161 -1.511 65.594 -15.389 C 65.852 -16.432 65.421 -17.685 65.169 -18.809 C 60.844 -38.145 56.786 -57.549 52.035 -76.78 C 49.474 -87.15 55.222 -93.539 61.336 -101.497 M -280.054 -83.46 C -275.926 -83.889 -273.558 -82.137 -271.744 -78.523 C -269.553 -74.157 -266.518 -70.217 -263.886 -66.067 C -259.14 -58.583 -254.447 -51.064 -249.685 -43.59 C -245.285 -36.684 -244.474 -28.722 -242.654 -21 C -239.97 -9.614 -240.644 1.498 -243.622 12.666 C -248.003 29.101 -256.354 43.157 -268.632 54.869 C -274.733 60.689 -280.767 66.621 -287.287 71.944 C -290.889 74.885 -293.67 73.311 -292.656 68.883 C -291.725 64.817 -293.055 62.101 -294.785 59.006 C -295.308 58.07 -295.511 56.824 -295.476 55.733 C -295.336 51.441 -294.916 47.158 -294.828 42.867 C -294.374 20.584 -294.084 -1.702 -293.552 -23.983 C -293.101 -42.896 -292.176 -61.802 -291.933 -80.717 C -291.856 -86.706 -292.881 -88.841 -282.562 -92.273 C -281.773 -89.501 -280.988 -86.742 -280.054 -83.46 M -533.208 77.409 C -528.798 81.312 -523.378 85.666 -518.566 90.611 C -516.914 92.309 -515.811 95.623 -516.143 97.959 C -517.028 104.185 -518.964 110.096 -521.396 116.091 C -526.211 127.962 -529.05 140.648 -532.444 153.069 C -533 155.106 -532.918 157.892 -531.941 159.681 C -525.75 171.011 -518.814 181.951 -513.01 193.466 C -510.671 198.105 -508.872 204.179 -509.754 209.071 C -512.926 226.654 -524.705 237.875 -539.99 245.943 C -548.971 250.684 -557.853 255.614 -567.193 260.683 C -568.749 258.65 -574.551 259.143 -573.887 253.546 C -572.057 238.124 -570.896 222.572 -568.065 207.332 C -564.877 190.173 -559.414 173.423 -556.515 156.23 C -555.535 150.415 -554.776 145.539 -552.076 139.942 C -547.582 130.625 -545.753 119.841 -543.939 109.476 C -542.667 102.203 -543.366 94.594 -543.001 87.144 C -542.917 85.42 -542.609 83.131 -541.488 82.157 C -539.396 80.338 -536.633 79.293 -533.208 77.409 " fill="#ffffff"/>
<path transform="matrix(1,0,0,-1,100.2427,131.55252)" d="M 0 0 C -.522 -.397 -1.044 -.795 -1.566 -1.192 C 2.991 -17.003 7.564 -32.809 12.097 -48.626 C 13.785 -54.519 15.233 -60.485 17.099 -66.32 C 17.708 -68.223 19.248 -69.849 20.526 -71.472 C 20.615 -71.585 22.313 -70.815 22.853 -70.131 C 29.151 -62.152 34.954 -53.77 36.965 -43.65 C 37.597 -40.469 36.886 -36.042 35.006 -33.509 C 26.213 -21.662 16.539 -10.535 4.034 -2.31 C 2.742 -1.46 1.347 -.767 0 0 M 24.354 -166.931 C 20.929 -165.046 18.166 -164.001 16.074 -162.183 C 14.953 -161.208 14.645 -158.92 14.561 -157.196 C 14.196 -149.746 14.895 -142.137 13.623 -134.864 C 11.809 -124.499 9.98 -113.714 5.486 -104.398 C 2.786 -98.801 2.027 -93.925 1.047 -88.109 C -1.852 -70.917 -7.315 -54.167 -10.503 -37.008 C -13.333 -21.768 -14.495 -6.216 -16.325 9.206 C -16.989 14.803 -11.187 14.31 -9.631 16.343 C -.291 11.274 8.591 6.344 17.572 1.604 C 32.857 -6.465 44.636 -17.686 47.808 -35.269 C 48.69 -40.161 46.891 -46.234 44.552 -50.874 C 38.748 -62.389 31.812 -73.329 25.621 -84.659 C 24.644 -86.448 24.562 -89.233 25.118 -91.271 C 28.512 -103.691 31.351 -116.377 36.166 -128.249 C 38.598 -134.244 40.534 -140.155 41.419 -146.38 C 41.751 -148.717 40.648 -152.031 38.996 -153.729 C 34.184 -158.674 28.764 -163.028 24.354 -166.931 " fill="#231f20"/>
<path transform="matrix(1,0,0,-1,376.2363,321.98213)" d="M 0 0 C -.771 -.236 -1.542 -.472 -2.313 -.707 C -1.342 -40.149 -.372 -79.592 .6 -119.034 L 1.991 -119.494 C 2.917 -118.299 3.91 -117.149 4.758 -115.901 C 8.017 -111.108 10.999 -106.108 14.51 -101.512 C 20.427 -93.768 24.546 -85.182 26.711 -75.778 C 30.986 -57.219 28.156 -39.586 19.205 -22.793 C 14.377 -13.737 7.634 -6.51 0 0 M 1.515 -137.37 C .58 -140.652 -.205 -143.411 -.994 -146.184 C -11.313 -142.751 -10.288 -140.616 -10.365 -134.627 C -10.608 -115.712 -11.532 -96.807 -11.984 -77.894 C -12.516 -55.612 -12.806 -33.326 -13.26 -11.043 C -13.348 -6.752 -13.768 -2.469 -13.908 1.823 C -13.943 2.914 -13.739 4.16 -13.216 5.096 C -11.486 8.19 -10.156 10.907 -11.087 14.973 C -12.102 19.4 -9.32 20.975 -5.719 18.034 C .801 12.711 6.835 6.779 12.936 .959 C 25.214 -10.753 33.565 -24.81 37.947 -41.244 C 40.924 -52.412 41.598 -63.524 38.915 -74.91 C 37.094 -82.632 36.284 -90.594 31.884 -97.5 C 27.122 -104.975 22.429 -112.493 17.682 -119.978 C 15.051 -124.127 12.016 -128.067 9.824 -132.434 C 8.01 -136.047 5.643 -137.799 1.515 -137.37 " fill="#231f20"/>
<path transform="matrix(1,0,0,-1,719.1406,477.38945)" d="M 0 0 C -6.114 7.958 -11.862 14.347 -9.301 24.717 C -4.55 43.948 -.492 63.353 3.833 82.688 C 4.085 83.813 4.516 85.065 4.258 86.108 C .825 99.986 -2.188 114.001 -6.388 127.647 C -10.115 139.756 -15.195 151.448 -19.667 163.328 C -19.891 163.923 -20.013 164.555 -20.579 166.61 C -14.42 161.34 -10.639 156.163 -8.342 149.75 C -3.326 135.746 1.837 121.794 6.973 107.833 C 7.243 107.097 7.806 106.468 8.955 104.641 C 11.57 129.745 21.674 152.248 22.551 177.124 C 28.638 173.674 30.207 167.429 31.819 161.355 C 34.854 149.928 31.147 139.044 28.775 128.071 C 23.466 103.515 18.195 78.949 12.822 54.406 C 9.215 37.932 5.468 21.486 1.748 5.035 C 1.462 3.769 .901 2.564 0 0 " fill="#231f20"/>
<path transform="matrix(1,0,0,-1,471.1846,403.37284)" d="M 0 0 C -2.943 17.49 -5.759 34.218 -8.573 50.945 C -9.017 50.967 -9.46 50.987 -9.903 51.009 C -13.458 33.984 -17.014 16.961 -20.767 -1.012 C -13.754 -.67 -7.546 -.368 0 0 M 25.979 -73.064 C 20.517 -71.756 17.418 -69.511 16.148 -64.389 C 12.421 -49.353 8.31 -34.41 4.196 -19.473 C 3.829 -18.141 2.464 -16.211 1.385 -16.085 C -6.596 -15.151 -14.621 -14.606 -23.481 -13.869 C -23.689 -19.21 -23.747 -25.142 -24.252 -31.034 C -24.408 -32.849 -25.788 -34.56 -26.607 -36.317 C -28.749 -35.015 -31.34 -34.094 -32.882 -32.28 C -33.97 -31.002 -33.903 -28.512 -33.893 -26.564 C -33.795 -9.603 -29.827 6.726 -26.136 23.165 C -22.521 39.258 -19.991 55.595 -17.065 71.839 C -15.737 79.207 -15.524 86.867 -11.123 93.896 C -6.312 87.831 -4.025 81.275 -2.911 74.249 C 1.024 49.421 4.298 24.467 9.031 -.208 C 12.874 -20.24 18.478 -39.934 23.242 -59.792 C 24.23 -63.908 24.96 -68.086 25.979 -73.064 " fill="#231f20"/>
<path transform="matrix(1,0,0,-1,324.4697,123.35864)" d="M 0 0 C .83 -3.193 2.01 -6.342 2.412 -9.588 C 3.103 -15.176 2.467 -21.045 3.877 -26.405 C 7.942 -41.859 12.199 -57.31 17.416 -72.403 C 23.107 -88.871 29.958 -104.938 36.625 -122.001 C 43.645 -120.122 50.948 -118.171 58.248 -116.207 C 59.689 -115.819 61.13 -115.421 62.547 -114.956 C 71.183 -112.126 71.458 -112.083 72.597 -120.829 C 73.625 -128.722 74.01 -136.702 74.574 -144.651 C 74.869 -148.81 73.192 -151.427 68.811 -152.53 C 59.635 -154.84 50.538 -157.471 41.443 -160.087 C 38.664 -160.887 37.284 -160.227 36.243 -157.369 C 27.802 -134.195 18.622 -111.271 10.833 -87.884 C 4.387 -68.532 -.02 -48.548 -1.447 -28.08 C -2.021 -19.833 -2.182 -11.557 -2.429 -3.291 C -2.46 -2.272 -1.859 -1.234 -1.551 -.204 C -1.034 -.136 -.517 -.068 0 0 " fill="#231f20"/>
<path transform="matrix(1,0,0,-1,210.3657,217.32694)" d="M 0 0 C -2.939 17.108 -5.719 33.29 -8.5 49.471 C -8.917 49.531 -9.336 49.59 -9.754 49.65 C -13.279 32.917 -16.804 16.184 -20.448 -1.119 C -13.405 -.733 -7.197 -.394 0 0 M -24.075 -34.42 C -30.272 -35.232 -33.53 -32.837 -33.095 -26.907 C -32.333 -16.533 -31.848 -5.982 -29.506 4.09 C -23.687 29.122 -18.242 54.177 -15.245 79.733 C -14.798 83.538 -13.066 87.193 -11.607 91.97 C -5.909 84.903 -3.755 77.766 -2.563 70.29 C 1.216 46.607 4.268 22.787 8.811 -.747 C 12.644 -20.606 18.176 -40.136 22.925 -59.82 C 23.724 -63.128 24.365 -66.474 25.088 -69.847 C 19.805 -70.392 17.232 -68.526 15.746 -62.966 C 11.993 -48.932 8.26 -34.889 4.796 -20.781 C 3.855 -16.949 2.378 -15.278 -1.849 -15.207 C -7.436 -15.112 -13.051 -14.242 -18.563 -13.219 C -21.789 -12.621 -23.233 -13.118 -23.31 -16.621 C -23.44 -22.579 -23.809 -28.532 -24.075 -34.42 " fill="#231f20"/>
<path transform="matrix(1,0,0,-1,536.8721,322.69895)" d="M 0 0 C .687 -7.701 1.623 -15.063 1.937 -22.45 C 2.453 -34.563 2.494 -46.695 2.933 -58.813 C 2.989 -60.393 4.21 -61.931 4.892 -63.487 C 6.615 -62.71 8.878 -62.388 9.978 -61.084 C 20.462 -48.655 24.076 -34.3 21.134 -18.35 C 19.357 -8.725 8.509 .315 0 0 M 41.875 -117.809 C 33.01 -112.588 28.174 -104.96 22.39 -98.354 C 16.536 -91.669 10.904 -84.791 5.175 -77.997 C 4.607 -78.131 4.04 -78.265 3.473 -78.399 C 4.149 -97.652 4.827 -116.905 5.52 -136.604 C .046 -135.682 -2.023 -132.241 -2.729 -128.3 C -3.573 -123.587 -3.737 -118.719 -3.836 -113.91 C -4.267 -92.946 -4.338 -71.972 -4.991 -51.015 C -5.473 -35.579 -6.925 -20.173 -7.348 -4.737 C -7.465 -.435 -6.677 3.576 -9.151 7.646 C -10.754 10.279 -8.525 11.53 -5.902 11.288 C 15.392 9.319 27.986 -4.976 29.381 -26.002 C 30.407 -41.479 26.174 -54.682 17.406 -66.842 C 14.484 -70.895 14.488 -73.695 18.42 -77.245 C 25.933 -84.026 32.955 -91.353 40.126 -98.508 C 40.896 -99.275 41.765 -100.392 41.798 -101.373 C 41.965 -106.449 41.875 -111.534 41.875 -117.809 " fill="#231f20"/>
<path transform="matrix(1,0,0,-1,251.9761,136.35913)" d="M 0 0 C -.673 -5.022 -1.708 -9.739 -1.876 -14.488 C -2.926 -44.139 -.547 -73.567 6.243 -102.43 C 8.881 -113.644 12.232 -125.017 19.429 -134.567 C 25.587 -142.74 31.414 -142.408 37.312 -133.927 C 42.05 -127.115 43.241 -119.266 43.884 -111.457 C 44.762 -100.808 45.263 -90.062 44.901 -79.393 C 44.215 -59.181 42.714 -38.998 41.757 -18.793 C 41.555 -14.52 41.989 -10.164 42.666 -5.931 C 42.871 -4.649 45.002 -2.613 46.041 -2.734 C 48.686 -3.042 52.405 -2.667 52.068 -7.439 C 51.601 -14.055 51.061 -20.707 51.267 -27.32 C 52.023 -51.553 53.698 -75.775 53.722 -100.003 C 53.732 -110.27 51.223 -120.728 48.562 -130.755 C 45.683 -141.606 33.291 -145.43 21.099 -140.55 C 12.033 -136.921 7.691 -129.25 3.943 -121.153 C -4.196 -103.573 -6.836 -84.636 -8.757 -65.638 C -10.178 -51.583 -10.986 -37.458 -11.677 -23.344 C -11.944 -17.896 -11.337 -12.374 -10.771 -6.923 C -9.871 1.733 -8.199 2.679 0 0 " fill="#231f20"/>
<path transform="matrix(1,0,0,-1,666.1133,429.28004)" d="M 0 0 C -2.036 -6.09 -3.318 -10.862 -5.315 -15.313 C -5.896 -16.606 -8.629 -17.834 -10.192 -17.637 C -18.979 -16.528 -27.716 -15.013 -36.457 -13.561 C -41.153 -12.78 -45.832 -11.89 -50.505 -10.974 C -54.874 -10.117 -59.155 -5.766 -58.568 -2.892 C -57.938 .195 -51.643 4.263 -48.035 2.805 C -36.137 -2.005 -23.785 1.192 -11.708 .052 C -8.153 -.284 -4.54 0 0 0 " fill="#231f20"/>
<path transform="matrix(1,0,0,-1,667.415,317.08863)" d="M 0 0 C -1.356 -4.838 -2.228 -8.687 -3.591 -12.353 C -4 -13.454 -5.666 -14.402 -6.951 -14.816 C -21.552 -19.521 -36.176 -24.153 -50.833 -28.674 C -52.817 -29.285 -55.441 -30.015 -57.028 -29.217 C -59.472 -27.988 -61.809 -25.765 -63.063 -23.372 C -63.516 -22.511 -61.091 -19.082 -59.326 -18.3 C -51.79 -14.961 -44.132 -11.793 -36.288 -9.278 C -25.951 -5.964 -15.406 -3.298 -4.933 -.419 C -3.743 -.093 -2.437 -.191 0 0 " fill="#231f20"/>
<path transform="matrix(1,0,0,-1,657.8047,375.89234)" d="M 0 0 C -1.58 -5.033 -2.944 -9.897 -4.72 -14.606 C -5.087 -15.581 -6.94 -16.465 -8.178 -16.569 C -19.917 -17.556 -31.665 -18.481 -43.426 -19.16 C -47.386 -19.389 -50.249 -16.691 -51.006 -13.209 C -51.422 -11.294 -49.964 -7.751 -48.312 -6.853 C -44.37 -4.707 -39.9 -2.854 -35.485 -2.39 C -23.986 -1.18 -12.402 -.778 0 0 " fill="#231f20"/>
<path transform="matrix(1,0,0,-1,100.2427,131.55252)" d="M 0 0 C 1.347 -.767 2.742 -1.46 4.034 -2.31 C 16.539 -10.535 26.213 -21.662 35.006 -33.509 C 36.886 -36.042 37.597 -40.469 36.965 -43.65 C 34.954 -53.77 29.151 -62.152 22.853 -70.131 C 22.313 -70.815 20.615 -71.585 20.526 -71.472 C 19.248 -69.849 17.708 -68.223 17.099 -66.32 C 15.233 -60.485 13.785 -54.519 12.097 -48.626 C 7.564 -32.809 2.991 -17.003 -1.566 -1.192 C -1.044 -.795 -.522 -.397 0 0 " fill="#ffffff"/>
<path transform="matrix(1,0,0,-1,376.2363,321.98213)" d="M 0 0 C 7.634 -6.51 14.377 -13.737 19.205 -22.793 C 28.156 -39.586 30.986 -57.219 26.711 -75.778 C 24.546 -85.182 20.427 -93.768 14.51 -101.512 C 10.999 -106.108 8.017 -111.108 4.758 -115.901 C 3.91 -117.149 2.917 -118.299 1.991 -119.494 L .6 -119.034 C -.372 -79.592 -1.342 -40.149 -2.313 -.707 C -1.542 -.472 -.771 -.236 0 0 " fill="#ffffff"/>
<path transform="matrix(1,0,0,-1,471.1846,403.37284)" d="M 0 0 C -7.546 -.368 -13.754 -.67 -20.767 -1.012 C -17.014 16.961 -13.458 33.984 -9.903 51.009 C -9.46 50.987 -9.017 50.967 -8.573 50.945 C -5.759 34.218 -2.943 17.49 0 0 " fill="#ffffff"/>
<path transform="matrix(1,0,0,-1,210.3657,217.32694)" d="M 0 0 C -7.197 -.394 -13.405 -.733 -20.448 -1.119 C -16.804 16.184 -13.279 32.917 -9.754 49.65 C -9.336 49.59 -8.917 49.531 -8.5 49.471 C -5.719 33.29 -2.939 17.108 0 0 " fill="#ffffff"/>
<path transform="matrix(1,0,0,-1,536.8721,322.69895)" d="M 0 0 C 8.509 .315 19.357 -8.725 21.134 -18.35 C 24.076 -34.3 20.462 -48.655 9.978 -61.084 C 8.878 -62.388 6.615 -62.71 4.892 -63.487 C 4.21 -61.931 2.989 -60.393 2.933 -58.813 C 2.494 -46.695 2.453 -34.563 1.937 -22.45 C 1.623 -15.063 .687 -7.701 0 0 " fill="#ffffff"/>
</g>
</g>
</g>
</svg>
