<?xml version="1.0" encoding="utf-8"?>
<!-- Generator: Adobe Illustrator 14.0.0, SVG Export Plug-In . SVG Version: 6.00 Build 43363)  -->
<!DOCTYPE svg PUBLIC "-//W3C//DTD SVG 1.1//EN" "http://www.w3.org/Graphics/SVG/1.1/DTD/svg11.dtd">
<svg version="1.1" id="Layer_1" xmlns="http://www.w3.org/2000/svg" xmlns:xlink="http://www.w3.org/1999/xlink" x="0px" y="0px"
	 width="1100px" height="612px" viewBox="0 0 1100 612" enable-background="new 0 0 1100 612" xml:space="preserve">
<g>
	<path fill="#FFFFFF" d="M543.8,408.4c-6.7-25.101-19.5-46.601-38.2-64.4c-9.399-8.9-18.6-18-28.5-26.1
		c-5.5-4.5-9.8-2.101-8.199,4.6c1.399,6.3-0.601,10.4-3.301,15.1c-0.8,1.5-1.1,3.4-1,5c0.2,6.601,0.801,13.101,0.9,19.7
		c0.7,34,1.2,68.101,2,102.101c0.7,28.899,2.1,57.8,2.5,86.699c0.1,9.101-1.5,12.4,14.3,17.7c1.2-4.3,2.4-8.5,3.8-13.5
		c6.301,0.601,9.9-2,12.7-7.6c3.4-6.601,8-12.601,12-19c7.3-11.4,14.4-22.9,21.7-34.3c6.7-10.601,8-22.7,10.8-34.5
		C549.4,442.5,548.3,425.5,543.8,408.4z M526.6,461.2c-3.3,14.399-9.6,27.5-18.6,39.3c-5.4,7-9.9,14.7-14.9,22
		c-1.3,1.9-2.8,3.7-4.3,5.5l-2.1-0.7c-1.5-60.3-2.9-120.5-4.4-180.8c1.101-0.4,2.3-0.7,3.5-1.1c11.7,10,22,21,29.3,34.8
		C528.8,405.9,533.1,432.8,526.6,461.2z"/>
	<path d="M1009.7,582.8c-9.4-12.1-18.101-21.899-14.2-37.7c7.2-29.399,13.4-59,20-88.6c0.4-1.7,1.1-3.6,0.7-5.2
		c-5.3-21.2-9.9-42.6-16.3-63.5c-5.7-18.5-13.4-36.3-20.301-54.5c-0.3-0.899-0.5-1.899-1.399-5c9.5,8.101,15.199,16,18.699,25.8
		c7.7,21.4,15.601,42.7,23.4,64c0.5,1.101,1.3,2.101,3.1,4.9c4-38.4,19.4-72.8,20.7-110.8c9.3,5.3,11.7,14.899,14.2,24.1
		c4.6,17.5-1,34.101-4.7,50.9c-8.1,37.5-16.1,75-24.3,112.5c-5.5,25.2-11.3,50.3-16.9,75.5
		C1011.899,577.1,1011.1,578.9,1009.7,582.8L1009.7,582.8z"/>
	<path fill="#FFFFFF" d="M666.4,561.1c-7.301-30.3-15.9-60.399-21.7-91c-7.3-37.699-12.3-75.8-18.3-113.8
		c-1.7-10.7-5.2-20.7-12.5-30c-6.801,10.8-7.101,22.5-9.101,33.7c-4.5,24.8-8.3,49.8-13.899,74.4c-5.601,25.1-11.7,50-11.801,75.899
		c0,3-0.1,6.8,1.5,8.8c2.4,2.801,6.301,4.2,9.601,6.101c1.3-2.601,3.399-5.2,3.6-8c0.8-9,0.9-18.101,1.2-26.2
		c13.5,1.1,25.8,1.9,38,3.3c1.6,0.2,3.7,3.2,4.3,5.2c6.3,22.8,12.5,45.7,18.2,68.6c2,7.9,6.7,11.301,15.1,13.301
		C669,573.8,667.9,567.4,666.4,561.1z M599.1,471.3c5.801-27.399,11.2-53.5,16.601-79.5c0.7,0.101,1.399,0.101,2.1,0.101
		c4.3,25.6,8.601,51.1,13.101,77.899C619.3,470.3,609.9,470.8,599.1,471.3z"/>
	<path d="M406.7,42c1.3,4.8,3.1,9.7,3.7,14.6c1.1,8.6,0.1,17.5,2.199,25.7c6.301,23.6,12.801,47.2,20.7,70.3
		c8.7,25.1,19.2,49.7,29.4,75.8c10.7-2.9,21.899-5.9,33-8.9c2.2-0.6,4.399-1.2,6.6-1.9c13.2-4.3,13.601-4.399,15.3,9
		c1.601,12,2.2,24.2,3.101,36.4c0.399,6.3-2.2,10.3-8.9,12c-14,3.5-27.899,7.5-41.8,11.5c-4.2,1.3-6.3,0.3-7.9-4.1
		C449.2,247,435.2,212,423.3,176.2c-9.899-29.5-16.6-60.1-18.8-91.3c-0.9-12.6-1.1-25.3-1.5-37.9c0-1.6,0.9-3.2,1.3-4.7
		C405.1,42.2,405.9,42.1,406.7,42L406.7,42z"/>
	<g>
		<path fill="#FFFFFF" stroke="#ED1C24" stroke-width="0" stroke-linecap="round" stroke-linejoin="round" d="M132.2,132.2
			c3.6-7.1,6.3-16.4,5-23.8c-4.9-26.9-22.9-44-46.2-56.4c-13.7-7.2-27.3-14.7-41.6-22.5c-2.3,3.1-11.2,2.4-10.2,10.9
			C42,64,43.8,87.7,48.1,111c4.9,26.2,13.2,51.8,17.6,78.1c1.5,8.9,2.7,16.301,6.8,24.9c6.9,14.2,9.7,30.7,12.5,46.5
			c1.9,11.1,0.8,22.8,1.4,34.1c0.1,2.7,0.6,6.2,2.3,7.7c3.2,2.7,7.4,4.3,12.7,7.2c6.7-5.9,15-12.6,22.3-20.2
			c2.5-2.5,4.2-7.6,3.7-11.2c-1.3-9.5-4.3-18.5-8-27.699c-7.4-18.101-11.7-37.5-16.9-56.5c-0.8-3.101-0.7-7.301,0.8-10.101
			C112.8,166.5,123.3,149.8,132.2,132.2z M99.1,161.6c-0.9,1.101-3.5,2.2-3.6,2.101c-1.9-2.5-4.3-5-5.2-7.9c-2.9-8.9-5.1-18-7.7-27
			c-6.9-24.2-13.9-48.3-20.8-72.5c0.8-0.6,1.6-1.2,2.3-1.8c2.1,1.2,4.2,2.2,6.2,3.5c19.1,12.6,33.9,29.6,47.3,47.7
			c2.9,3.8,4,10.6,3,15.5C117.6,136.6,108.7,149.4,99.1,161.6z"/>
		<path stroke="#ED1C24" stroke-width="0" stroke-linecap="round" stroke-linejoin="round" d="M838.1,448
			c1.101,5.3,5.5,9.4,11.5,9.1c18-1.1,36-2.5,53.9-4c1.9-0.199,4.7-1.5,5.3-3c2.7-7.199,4.8-14.6,7.2-22.3
			c-19,1.2-36.7,1.8-54.2,3.601c-6.8,0.699-13.6,3.6-19.6,6.8C839.6,439.6,837.4,445,838.1,448z"/>
		<path fill="none" stroke="#ED1C24" stroke-width="0" stroke-linecap="round" stroke-linejoin="round" d="M580.6,519.1
			c2.4,2.801,6.301,4.2,9.601,6.101c1.3-2.601,3.399-5.3,3.6-8c0.8-9,0.9-18.101,1.2-26.2c13.5,1.1,25.8,1.9,38,3.3
			c1.6,0.2,3.7,3.2,4.3,5.2c6.3,22.8,12.5,45.7,18.2,68.6c2,7.9,6.7,11.301,15.1,13.301c-1.6-7.601-2.699-14-4.199-20.301
			c-7.301-30.3-15.9-60.399-21.7-91c-7.3-37.699-12.3-75.8-18.3-113.8c-1.7-10.7-5.2-20.7-12.5-30C607.1,337,606.8,348.8,604.8,360
			c-4.5,24.8-8.3,49.8-13.899,74.4c-5.601,25.1-11.7,50-11.801,75.899C579.1,513.3,579,517.1,580.6,519.1z"/>
		<path fill="none" stroke="#ED1C24" stroke-width="0" stroke-linecap="round" stroke-linejoin="round" d="M717.2,334.8
			c3.8,6.2,2.6,12.4,2.8,18.9c0.6,23.6,2.9,47.2,3.6,70.8c1,32,1.101,64,1.801,96c0.1,7.4,0.399,14.8,1.699,22
			c1,6,4.2,11.3,12.601,12.7c-1.101-30.101-2.101-59.5-3.2-88.9c0.9-0.2,1.8-0.399,2.6-0.6C747.9,476.1,756.5,486.6,765.4,496.8
			c8.899,10.101,16.3,21.7,29.8,29.7c0-9.6,0.1-17.4-0.101-25.1c-0.1-1.5-1.399-3.2-2.6-4.4c-10.9-10.9-21.7-22.1-33.1-32.5
			c-6-5.4-6-9.7-1.601-15.9c13.4-18.5,19.9-38.699,18.3-62.399C774,354.1,754.7,332.3,722.2,329.3
			C718.2,328.9,714.8,330.8,717.2,334.8z"/>
		<path stroke="#ED1C24" stroke-width="0" stroke-linecap="round" stroke-linejoin="round" d="M851.5,526.1
			c7.2,1.4,14.3,2.801,21.5,4c13.3,2.2,26.7,4.5,40.1,6.2c2.4,0.3,6.601-1.6,7.5-3.6c3-6.8,5-14.101,8.101-23.4
			c-7,0-12.5,0.5-17.9,0c-18.5-1.8-37.3,3.101-55.5-4.2c-5.5-2.3-15.1,3.9-16.1,8.7C838.3,518.2,844.8,524.8,851.5,526.1z"/>
		<path fill="#FFFFFF" stroke="#ED1C24" stroke-width="0" stroke-linecap="round" stroke-linejoin="round" d="M978.2,328.3
			c0.899,3.101,1.1,4.101,1.399,5c6.9,18.2,14.601,36,20.301,54.5c6.399,20.9,11,42.3,16.3,63.5c0.4,1.601-0.3,3.5-0.7,5.2
			c-6.6,29.6-12.8,59.2-20,88.6c-3.899,15.801,4.801,25.601,14.2,37.7c1.399-3.899,2.2-5.7,2.7-7.6
			c5.6-25.2,11.399-50.3,16.899-75.5c8.2-37.5,16.2-75,24.3-112.5c3.7-16.8,9.301-33.4,4.7-50.9c-2.5-9.2-4.899-18.8-14.2-24.1
			c-1.3,38-16.699,72.399-20.699,110.8c-1.801-2.8-2.601-3.8-3.101-4.9c-7.8-21.3-15.7-42.6-23.399-64
			C993.4,344.3,987.7,336.4,978.2,328.3z"/>
		<path stroke="#ED1C24" stroke-width="0" stroke-linecap="round" stroke-linejoin="round" d="M834.3,373.6c1.9,3.7,5.5,7.101,9.2,9
			c2.5,1.2,6.5,0.101,9.5-0.899c22.4-6.9,44.7-13.9,67-21.101c2-0.699,4.6-2.1,5.2-3.8c2.1-5.6,3.399-11.5,5.5-18.899
			c-3.8,0.3-5.8,0.199-7.601,0.699c-16,4.4-32.1,8.5-47.899,13.5c-12,3.9-23.7,8.7-35.2,13.801C837.3,367.1,833.6,372.3,834.3,373.6
			z"/>
		<path fill="none" stroke="#ED1C24" stroke-width="0" stroke-linecap="round" stroke-linejoin="round" d="M464.6,342.6
			c0.2,6.601,0.801,13.101,0.9,19.7c0.7,34,1.2,68.101,2,102.101c0.7,28.899,2.1,57.8,2.5,86.699c0.1,9.101-1.5,12.4,14.3,17.7
			c1.2-4.3,2.4-8.5,3.8-13.5c6.301,0.601,9.9-2,12.7-7.6c3.4-6.601,8-12.601,12-19c7.3-11.4,14.4-22.9,21.7-34.3
			c6.7-10.601,8-22.7,10.8-34.5c4.101-17.4,3-34.4-1.5-51.5c-6.7-25.101-19.5-46.601-38.2-64.4c-9.399-8.9-18.6-18-28.5-26.1
			c-5.5-4.5-9.8-2.101-8.199,4.6c1.399,6.3-0.601,10.4-3.301,15.1C464.8,339.1,464.5,341,464.6,342.6z"/>
		<path stroke="#ED1C24" stroke-width="0" stroke-linecap="round" stroke-linejoin="round" d="M278.1,97.5
			c1.1,21.6,2.3,43.1,4.5,64.6c2.9,29,7,58,19.4,84.801c5.7,12.399,12.3,24.1,26.2,29.699c18.6,7.4,37.6,1.601,42-15
			c4-15.3,7.899-31.3,7.8-47c0-37-2.6-74-3.7-111c-0.3-10.1,0.5-20.3,1.2-30.4c0.5-7.3-5.2-6.7-9.2-7.2c-1.6-0.2-4.8,2.9-5.2,4.9
			c-1,6.5-1.6,13.1-1.3,19.6c1.4,30.9,3.7,61.7,4.8,92.6c0.5,16.301-0.3,32.7-1.6,49c-1,11.9-2.8,23.9-10,34.301
			c-9,13-17.9,13.5-27.4,1c-10.899-14.601-16.1-32-20.1-49.101c-10.4-44.1-14-89-12.4-134.3c0.3-7.3,1.8-14.5,2.9-22.2
			c-12.6-4.1-15.1-2.6-16.5,10.6C278.6,80.7,277.7,89.2,278.1,97.5z"/>
		<path fill="#FFFFFF" stroke="#ED1C24" stroke-width="0" stroke-linecap="round" stroke-linejoin="round" d="M403,47
			c0.4,12.6,0.6,25.3,1.5,37.9c2.2,31.2,8.9,61.8,18.8,91.3c11.9,35.8,25.9,70.8,38.8,106.2c1.601,4.399,3.7,5.399,7.9,4.1
			c13.9-4,27.8-8,41.8-11.5c6.7-1.7,9.3-5.7,8.9-12c-0.9-12.2-1.5-24.4-3.101-36.4c-1.699-13.399-2.1-13.3-15.3-9
			c-2.2,0.7-4.399,1.301-6.6,1.9c-11.1,3-22.3,6-33,8.9c-10.2-26.101-20.7-50.7-29.4-75.8c-7.899-23.1-14.399-46.7-20.7-70.3
			c-2.1-8.2-1.1-17.2-2.199-25.7c-0.601-4.9-2.4-9.8-3.7-14.6c-0.8,0.1-1.601,0.2-2.4,0.3C403.9,43.8,403,45.4,403,47z"/>
		<path fill="#FFFFFF" stroke="#ED1C24" stroke-width="0" stroke-linecap="round" stroke-linejoin="round" d="M267.4,276.9
			c-7.2-30.101-15.7-59.9-21.5-90.2c-7-36-11.7-72.4-17.4-108.6c-1.8-11.4-5.1-22.3-13.8-33.1c-2.3,7.3-4.9,12.9-5.6,18.7
			c-4.6,39.1-12.9,77.3-21.8,115.6c-3.6,15.4-4.3,31.5-5.5,47.3c-0.6,9.101,4.3,12.801,13.8,11.5c0.4-9,1-18.1,1.2-27.199
			c0.1-5.301,2.3-6.101,7.2-5.2c8.5,1.6,17,2.899,25.6,3.1c6.4,0.101,8.7,2.601,10.1,8.5c5.3,21.5,11,43,16.7,64.4
			c2.3,8.5,6.2,11.399,14.3,10.5C269.6,287.1,268.6,282,267.4,276.9z M201.2,187.2c5.5-26.4,10.9-52,16.3-77.5
			c0.6,0.1,1.3,0.2,1.9,0.2c4.3,24.8,8.5,49.5,13,75.6C221.4,186.1,211.9,186.6,201.2,187.2z"/>
	</g>
	<path fill="#FFFFFF" d="M731.2,346.5c1.1,11.8,2.5,23,3,34.3c0.8,18.5,0.8,37.101,1.5,55.601c0.1,2.399,2,4.699,3,7.1
		c2.6-1.2,6.1-1.7,7.8-3.7c16-19,21.5-40.899,17-65.3C760.8,359.8,744.2,346,731.2,346.5 M795.2,526.5c-13.5-8-20.9-19.6-29.8-29.7
		c-8.9-10.2-17.5-20.7-26.301-31.1c-0.8,0.2-1.699,0.399-2.6,0.6c1.1,29.4,2.1,58.8,3.2,88.9c-8.4-1.4-11.601-6.7-12.601-12.7
		c-1.3-7.2-1.6-14.6-1.699-22c-0.7-32-0.801-64-1.801-96c-0.699-23.6-3-47.2-3.6-70.8c-0.2-6.5,1-12.7-2.8-18.9
		c-2.4-4,1-5.899,5-5.5c32.5,3,51.8,24.8,53.899,56.9c1.601,23.7-4.899,43.899-18.3,62.399c-4.5,6.2-4.399,10.5,1.601,15.9
		c11.399,10.4,22.199,21.6,33.1,32.5c1.2,1.2,2.5,2.9,2.6,4.4C795.3,509.1,795.2,516.9,795.2,526.5L795.2,526.5z"/>
	<path fill="#FFFFFF" d="M296,61.8c-1.1,7.7-2.6,14.9-2.9,22.2c-1.6,45.3,2,90.2,12.4,134.3c4,17.101,9.2,34.5,20.1,49.101
		c9.5,12.5,18.4,12,27.4-1c7.2-10.4,9-22.4,10-34.301c1.3-16.3,2.1-32.699,1.6-49c-1.1-30.899-3.399-61.7-4.8-92.6
		c-0.3-6.5,0.3-13.1,1.3-19.6c0.4-2,3.601-5.1,5.2-4.9c4,0.5,9.7-0.1,9.2,7.2c-0.7,10.1-1.5,20.3-1.2,30.4c1.101,37,3.7,74,3.7,111
		c0.1,15.7-3.8,31.7-7.8,47c-4.4,16.601-23.4,22.4-42,15c-13.9-5.6-20.5-17.3-26.2-29.699C289.6,220.1,285.5,191.1,282.6,162.1
		c-2.2-21.5-3.4-43-4.5-64.6c-0.4-8.3,0.5-16.8,1.4-25.1C280.9,59.2,283.4,57.7,296,61.8z"/>
	<path fill="#FFFFFF" d="M928.7,509.3c-3.101,9.3-5.101,16.601-8.101,23.4c-0.899,2-5.1,3.899-7.5,3.6c-13.399-1.7-26.8-4-40.1-6.2
		c-7.2-1.199-14.3-2.6-21.5-4c-6.7-1.3-13.2-7.899-12.3-12.3c1-4.8,10.6-11,16.1-8.7c18.2,7.301,37,2.4,55.5,4.2
		C916.2,509.8,921.7,509.3,928.7,509.3L928.7,509.3z"/>
	<path fill="#FFFFFF" d="M930.7,337.9c-2.101,7.399-3.4,13.3-5.5,18.899c-0.601,1.7-3.2,3.101-5.2,3.8
		c-22.3,7.2-44.6,14.2-67,21.101c-3,1-7,2.1-9.5,0.899c-3.7-1.899-7.3-5.3-9.2-9c-0.7-1.3,3-6.5,5.7-7.699
		c11.5-5.101,23.2-9.9,35.2-13.801c15.8-5,31.899-9.1,47.899-13.5C924.9,338.1,926.9,338.2,930.7,337.9L930.7,337.9z"/>
	<path fill="#FFFFFF" d="M916,427.8c-2.4,7.7-4.5,15.101-7.2,22.3c-0.6,1.5-3.399,2.801-5.3,3c-17.9,1.5-35.9,2.9-53.9,4
		c-6,0.301-10.399-3.8-11.5-9.1c-0.699-3,1.5-8.4,4.101-9.8c6-3.2,12.8-6.101,19.6-6.8C879.3,429.6,897,429,916,427.8L916,427.8z"/>
</g>
</svg>
